<svg xmlns="http://www.w3.org/2000/svg" version="1.1" xmlns:xlink="http://www.w3.org/1999/xlink" xmlns:svgjs="http://svgjs.dev/svgjs" width="1440" height="560" preserveAspectRatio="none" viewBox="0 0 1440 560">
    <g mask="url(&quot;#SvgjsMask1233&quot;)" fill="none">
        <rect width="1440" height="560" x="0" y="0" fill="rgba(0, 0, 0, 1)"></rect>
        <path d="M126.99 357.54L197.14 398.04L197.14 479.04L126.99 519.54L56.84 479.04L56.84 398.04zM197.14 236.04L267.29 276.54L267.29 357.54L197.14 398.04L126.99 357.54L126.99 276.54zM337.44 -6.96L407.59 33.54L407.59 114.54L337.44 155.04L267.29 114.54L267.29 33.54zM407.59 114.54L477.74 155.04L477.74 236.04L407.59 276.54L337.44 236.04L337.44 155.04zM337.44 236.04L407.59 276.54L407.59 357.54L337.44 398.04L267.29 357.54L267.29 276.54zM337.44 479.04L407.59 519.54L407.59 600.54L337.44 641.04L267.29 600.54L267.29 519.54zM407.59 600.54L477.74 641.04L477.74 722.04L407.59 762.54L337.44 722.04L337.44 641.04zM547.89 114.54L618.04 155.04L618.04 236.04L547.89 276.54L477.74 236.04L477.74 155.04zM547.89 600.54L618.04 641.04L618.04 722.04L547.89 762.54L477.74 722.04L477.74 641.04zM618.04 479.04L688.19 519.54L688.19 600.54L618.04 641.04L547.89 600.54L547.89 519.54zM758.34 236.04L828.49 276.54L828.49 357.54L758.34 398.04L688.19 357.54L688.19 276.54zM828.49 357.54L898.64 398.04L898.64 479.04L828.49 519.54L758.34 479.04L758.34 398.04zM898.64 236.04L968.79 276.54L968.79 357.54L898.64 398.04L828.49 357.54L828.49 276.54zM968.79 357.54L1038.94 398.04L1038.94 479.04L968.79 519.54L898.64 479.04L898.64 398.04zM1038.94 -6.96L1109.09 33.54L1109.09 114.54L1038.94 155.04L968.79 114.54L968.79 33.54zM1179.24 236.04L1249.39 276.54L1249.39 357.54L1179.24 398.04L1109.09 357.54L1109.09 276.54zM1249.39 357.54L1319.54 398.04L1319.54 479.04L1249.39 519.54L1179.24 479.04L1179.24 398.04zM1319.54 479.04L1389.69 519.54L1389.69 600.54L1319.54 641.04L1249.39 600.54L1249.39 519.54zM1389.69 600.54L1459.84 641.04L1459.84 722.04L1389.69 762.54L1319.54 722.04L1319.54 641.04z" stroke="rgba(64, 67, 69, 1)" stroke-width="2"></path>
        <path d="M118.89 357.54 a8.1 8.1 0 1 0 16.2 0 a8.1 8.1 0 1 0 -16.2 0zM189.04 398.04 a8.1 8.1 0 1 0 16.2 0 a8.1 8.1 0 1 0 -16.2 0zM189.04 479.04 a8.1 8.1 0 1 0 16.2 0 a8.1 8.1 0 1 0 -16.2 0zM118.89 519.54 a8.1 8.1 0 1 0 16.2 0 a8.1 8.1 0 1 0 -16.2 0zM48.74 479.04 a8.1 8.1 0 1 0 16.2 0 a8.1 8.1 0 1 0 -16.2 0zM48.74 398.04 a8.1 8.1 0 1 0 16.2 0 a8.1 8.1 0 1 0 -16.2 0zM189.04 236.04 a8.1 8.1 0 1 0 16.2 0 a8.1 8.1 0 1 0 -16.2 0zM259.19 276.54 a8.1 8.1 0 1 0 16.2 0 a8.1 8.1 0 1 0 -16.2 0zM259.19 357.54 a8.1 8.1 0 1 0 16.2 0 a8.1 8.1 0 1 0 -16.2 0zM118.89 276.54 a8.1 8.1 0 1 0 16.2 0 a8.1 8.1 0 1 0 -16.2 0zM329.34 -6.96 a8.1 8.1 0 1 0 16.2 0 a8.1 8.1 0 1 0 -16.2 0zM399.49 33.54 a8.1 8.1 0 1 0 16.2 0 a8.1 8.1 0 1 0 -16.2 0zM399.49 114.54 a8.1 8.1 0 1 0 16.2 0 a8.1 8.1 0 1 0 -16.2 0zM329.34 155.04 a8.1 8.1 0 1 0 16.2 0 a8.1 8.1 0 1 0 -16.2 0zM259.19 114.54 a8.1 8.1 0 1 0 16.2 0 a8.1 8.1 0 1 0 -16.2 0zM259.19 33.54 a8.1 8.1 0 1 0 16.2 0 a8.1 8.1 0 1 0 -16.2 0zM469.64 155.04 a8.1 8.1 0 1 0 16.2 0 a8.1 8.1 0 1 0 -16.2 0zM469.64 236.04 a8.1 8.1 0 1 0 16.2 0 a8.1 8.1 0 1 0 -16.2 0zM399.49 276.54 a8.1 8.1 0 1 0 16.2 0 a8.1 8.1 0 1 0 -16.2 0zM329.34 236.04 a8.1 8.1 0 1 0 16.2 0 a8.1 8.1 0 1 0 -16.2 0zM399.49 357.54 a8.1 8.1 0 1 0 16.2 0 a8.1 8.1 0 1 0 -16.2 0zM329.34 398.04 a8.1 8.1 0 1 0 16.2 0 a8.1 8.1 0 1 0 -16.2 0zM329.34 479.04 a8.1 8.1 0 1 0 16.2 0 a8.1 8.1 0 1 0 -16.2 0zM399.49 519.54 a8.1 8.1 0 1 0 16.2 0 a8.1 8.1 0 1 0 -16.2 0zM399.49 600.54 a8.1 8.1 0 1 0 16.2 0 a8.1 8.1 0 1 0 -16.2 0zM329.34 641.04 a8.1 8.1 0 1 0 16.2 0 a8.1 8.1 0 1 0 -16.2 0zM259.19 600.54 a8.1 8.1 0 1 0 16.2 0 a8.1 8.1 0 1 0 -16.2 0zM259.19 519.54 a8.1 8.1 0 1 0 16.2 0 a8.1 8.1 0 1 0 -16.2 0zM469.64 641.04 a8.1 8.1 0 1 0 16.2 0 a8.1 8.1 0 1 0 -16.2 0zM469.64 722.04 a8.1 8.1 0 1 0 16.2 0 a8.1 8.1 0 1 0 -16.2 0zM399.49 762.54 a8.1 8.1 0 1 0 16.2 0 a8.1 8.1 0 1 0 -16.2 0zM329.34 722.04 a8.1 8.1 0 1 0 16.2 0 a8.1 8.1 0 1 0 -16.2 0zM539.79 114.54 a8.1 8.1 0 1 0 16.2 0 a8.1 8.1 0 1 0 -16.2 0zM609.94 155.04 a8.1 8.1 0 1 0 16.2 0 a8.1 8.1 0 1 0 -16.2 0zM609.94 236.04 a8.1 8.1 0 1 0 16.2 0 a8.1 8.1 0 1 0 -16.2 0zM539.79 276.54 a8.1 8.1 0 1 0 16.2 0 a8.1 8.1 0 1 0 -16.2 0zM539.79 600.54 a8.1 8.1 0 1 0 16.2 0 a8.1 8.1 0 1 0 -16.2 0zM609.94 641.04 a8.1 8.1 0 1 0 16.2 0 a8.1 8.1 0 1 0 -16.2 0zM609.94 722.04 a8.1 8.1 0 1 0 16.2 0 a8.1 8.1 0 1 0 -16.2 0zM539.79 762.54 a8.1 8.1 0 1 0 16.2 0 a8.1 8.1 0 1 0 -16.2 0zM609.94 479.04 a8.1 8.1 0 1 0 16.2 0 a8.1 8.1 0 1 0 -16.2 0zM680.09 519.54 a8.1 8.1 0 1 0 16.2 0 a8.1 8.1 0 1 0 -16.2 0zM680.09 600.54 a8.1 8.1 0 1 0 16.2 0 a8.1 8.1 0 1 0 -16.2 0zM539.79 519.54 a8.1 8.1 0 1 0 16.2 0 a8.1 8.1 0 1 0 -16.2 0zM750.24 236.04 a8.1 8.1 0 1 0 16.2 0 a8.1 8.1 0 1 0 -16.2 0zM820.39 276.54 a8.1 8.1 0 1 0 16.2 0 a8.1 8.1 0 1 0 -16.2 0zM820.39 357.54 a8.1 8.1 0 1 0 16.2 0 a8.1 8.1 0 1 0 -16.2 0zM750.24 398.04 a8.1 8.1 0 1 0 16.2 0 a8.1 8.1 0 1 0 -16.2 0zM680.09 357.54 a8.1 8.1 0 1 0 16.2 0 a8.1 8.1 0 1 0 -16.2 0zM680.09 276.54 a8.1 8.1 0 1 0 16.2 0 a8.1 8.1 0 1 0 -16.2 0zM890.54 398.04 a8.1 8.1 0 1 0 16.2 0 a8.1 8.1 0 1 0 -16.2 0zM890.54 479.04 a8.1 8.1 0 1 0 16.2 0 a8.1 8.1 0 1 0 -16.2 0zM820.39 519.54 a8.1 8.1 0 1 0 16.2 0 a8.1 8.1 0 1 0 -16.2 0zM750.24 479.04 a8.1 8.1 0 1 0 16.2 0 a8.1 8.1 0 1 0 -16.2 0zM890.54 236.04 a8.1 8.1 0 1 0 16.2 0 a8.1 8.1 0 1 0 -16.2 0zM960.69 276.54 a8.1 8.1 0 1 0 16.2 0 a8.1 8.1 0 1 0 -16.2 0zM960.69 357.54 a8.1 8.1 0 1 0 16.2 0 a8.1 8.1 0 1 0 -16.2 0zM1030.84 398.04 a8.1 8.1 0 1 0 16.2 0 a8.1 8.1 0 1 0 -16.2 0zM1030.84 479.04 a8.1 8.1 0 1 0 16.2 0 a8.1 8.1 0 1 0 -16.2 0zM960.69 519.54 a8.1 8.1 0 1 0 16.2 0 a8.1 8.1 0 1 0 -16.2 0zM1030.84 -6.96 a8.1 8.1 0 1 0 16.2 0 a8.1 8.1 0 1 0 -16.2 0zM1100.99 33.54 a8.1 8.1 0 1 0 16.2 0 a8.1 8.1 0 1 0 -16.2 0zM1100.99 114.54 a8.1 8.1 0 1 0 16.2 0 a8.1 8.1 0 1 0 -16.2 0zM1030.84 155.04 a8.1 8.1 0 1 0 16.2 0 a8.1 8.1 0 1 0 -16.2 0zM960.69 114.54 a8.1 8.1 0 1 0 16.2 0 a8.1 8.1 0 1 0 -16.2 0zM960.69 33.54 a8.1 8.1 0 1 0 16.2 0 a8.1 8.1 0 1 0 -16.2 0zM1171.14 236.04 a8.1 8.1 0 1 0 16.2 0 a8.1 8.1 0 1 0 -16.2 0zM1241.29 276.54 a8.1 8.1 0 1 0 16.2 0 a8.1 8.1 0 1 0 -16.2 0zM1241.29 357.54 a8.1 8.1 0 1 0 16.2 0 a8.1 8.1 0 1 0 -16.2 0zM1171.14 398.04 a8.1 8.1 0 1 0 16.2 0 a8.1 8.1 0 1 0 -16.2 0zM1100.99 357.54 a8.1 8.1 0 1 0 16.2 0 a8.1 8.1 0 1 0 -16.2 0zM1100.99 276.54 a8.1 8.1 0 1 0 16.2 0 a8.1 8.1 0 1 0 -16.2 0zM1311.44 398.04 a8.1 8.1 0 1 0 16.2 0 a8.1 8.1 0 1 0 -16.2 0zM1311.44 479.04 a8.1 8.1 0 1 0 16.2 0 a8.1 8.1 0 1 0 -16.2 0zM1241.29 519.54 a8.1 8.1 0 1 0 16.2 0 a8.1 8.1 0 1 0 -16.2 0zM1171.14 479.04 a8.1 8.1 0 1 0 16.2 0 a8.1 8.1 0 1 0 -16.2 0zM1381.59 519.54 a8.1 8.1 0 1 0 16.2 0 a8.1 8.1 0 1 0 -16.2 0zM1381.59 600.54 a8.1 8.1 0 1 0 16.2 0 a8.1 8.1 0 1 0 -16.2 0zM1311.44 641.04 a8.1 8.1 0 1 0 16.2 0 a8.1 8.1 0 1 0 -16.2 0zM1241.29 600.54 a8.1 8.1 0 1 0 16.2 0 a8.1 8.1 0 1 0 -16.2 0zM1451.74 641.04 a8.1 8.1 0 1 0 16.2 0 a8.1 8.1 0 1 0 -16.2 0zM1451.74 722.04 a8.1 8.1 0 1 0 16.2 0 a8.1 8.1 0 1 0 -16.2 0zM1381.59 762.54 a8.1 8.1 0 1 0 16.2 0 a8.1 8.1 0 1 0 -16.2 0zM1311.44 722.04 a8.1 8.1 0 1 0 16.2 0 a8.1 8.1 0 1 0 -16.2 0z" fill="rgba(64, 67, 69, 1)"></path>
        <path d="M18.68 129.66L61.98 154.66L61.98 204.66L18.68 229.66L-24.62 204.66L-24.62 154.66zM278.5 -20.34L321.8 4.66L321.8 54.66L278.5 79.66L235.19 54.66L235.19 4.66zM278.5 279.66L321.8 304.66L321.8 354.66L278.5 379.66L235.19 354.66L235.19 304.66zM451.71 279.66L495.01 304.66L495.01 354.66L451.71 379.66L408.4 354.66L408.4 304.66zM754.82 54.66L798.13 79.66L798.13 129.66L754.82 154.66L711.52 129.66L711.52 79.66zM711.52 129.66L754.82 154.66L754.82 204.66L711.52 229.66L668.22 204.66L668.22 154.66zM754.82 204.66L798.13 229.66L798.13 279.66L754.82 304.66L711.52 279.66L711.52 229.66zM841.43 204.66L884.73 229.66L884.73 279.66L841.43 304.66L798.13 279.66L798.13 229.66zM798.13 429.66L841.43 454.66L841.43 504.66L798.13 529.66L754.82 504.66L754.82 454.66zM928.03 354.66L971.34 379.66L971.34 429.66L928.03 454.66L884.73 429.66L884.73 379.66zM971.34 -20.34L1014.64 4.66L1014.64 54.66L971.34 79.66L928.03 54.66L928.03 4.66zM1014.64 54.66L1057.94 79.66L1057.94 129.66L1014.64 154.66L971.34 129.66L971.34 79.66zM1101.24 54.66L1144.55 79.66L1144.55 129.66L1101.24 154.66L1057.94 129.66L1057.94 79.66zM1101.24 204.66L1144.55 229.66L1144.55 279.66L1101.24 304.66L1057.94 279.66L1057.94 229.66zM1101.24 354.66L1144.55 379.66L1144.55 429.66L1101.24 454.66L1057.94 429.66L1057.94 379.66zM1144.55 -20.34L1187.85 4.66L1187.85 54.66L1144.55 79.66L1101.24 54.66L1101.24 4.66zM1187.85 204.66L1231.15 229.66L1231.15 279.66L1187.85 304.66L1144.55 279.66L1144.55 229.66zM1187.85 504.66L1231.15 529.66L1231.15 579.66L1187.85 604.66L1144.55 579.66L1144.55 529.66zM1317.76 -20.34L1361.06 4.66L1361.06 54.66L1317.76 79.66L1274.45 54.66L1274.45 4.66zM1361.06 204.66L1404.36 229.66L1404.36 279.66L1361.06 304.66L1317.76 279.66L1317.76 229.66zM1361.06 354.66L1404.36 379.66L1404.36 429.66L1361.06 454.66L1317.76 429.66L1317.76 379.66zM1447.66 54.66L1490.97 79.66L1490.97 129.66L1447.66 154.66L1404.36 129.66L1404.36 79.66zM1447.66 204.66L1490.97 229.66L1490.97 279.66L1447.66 304.66L1404.36 279.66L1404.36 229.66z" stroke="rgba(50, 52, 53, 0.93)" stroke-width="2"></path>
    </g>
    <defs>
        <mask id="SvgjsMask1233">
            <rect width="1440" height="560" fill="#ffffff"></rect>
        </mask>
    </defs>
</svg>