<svg width="50" height="50" viewBox="0 0 50 50" fill="none" xmlns="http://www.w3.org/2000/svg">
<path d="M44.8542 33.1875C44.5208 32.625 43.5833 31.75 41.25 32.1667C39.9583 32.3959 38.6458 32.5 37.3333 32.4375C32.4792 32.2292 28.0833 30 25.0208 26.5625C22.3125 23.5417 20.6458 19.6042 20.625 15.3542C20.625 12.9792 21.0833 10.6875 22.0208 8.52085C22.9375 6.41669 22.2917 5.31252 21.8333 4.85419C21.3542 4.37502 20.2292 3.70835 18.0208 4.62502C9.5 8.20835 4.22917 16.75 4.85417 25.8959C5.47917 34.5 11.5208 41.8542 19.5208 44.625C21.4375 45.2917 23.4583 45.6875 25.5417 45.7709C25.875 45.7917 26.2083 45.8125 26.5417 45.8125C33.5208 45.8125 40.0625 42.5209 44.1875 36.9167C45.5833 34.9792 45.2083 33.75 44.8542 33.1875Z" fill="#1D1D1D"/>
</svg>
