<svg width="48" height="48" viewBox="0 0 48 48" fill="none" xmlns="http://www.w3.org/2000/svg">
<path d="M21.3059 0.171353C10.2435 1.40918 1.34548 10.5691 0.143046 21.7095C-1.05939 33.3451 5.43376 43.7428 15.2937 47.7039C16.0152 47.9514 16.7367 47.4563 16.7367 46.466V42.505C16.7367 42.505 15.7747 42.7526 14.5723 42.7526C11.2055 42.7526 9.76253 39.7818 9.52205 38.0488C9.28156 37.0586 8.80059 36.3159 8.07912 35.5732C7.35766 35.3256 7.11717 35.3256 7.11717 35.0781C7.11717 34.5829 7.83864 34.5829 8.07912 34.5829C9.52205 34.5829 10.7245 36.3159 11.2055 37.0586C12.4079 39.0391 13.8508 39.5342 14.5723 39.5342C15.5342 39.5342 16.2557 39.2867 16.7367 39.0391C16.9771 37.3061 17.6986 35.5732 19.1415 34.5829C13.6103 33.3451 9.52205 30.1267 9.52205 24.6803C9.52205 21.9571 10.7245 19.2339 12.4079 17.2534C12.1674 16.7582 11.9269 15.5204 11.9269 13.7874C11.9269 12.7972 11.9269 11.3118 12.6484 9.8264C12.6484 9.8264 16.0152 9.8264 19.382 13.0447C20.5845 12.5496 22.2679 12.302 23.9513 12.302C25.6347 12.302 27.3181 12.5496 28.761 13.0447C31.8874 9.8264 35.4947 9.8264 35.4947 9.8264C35.9756 11.3118 35.9756 12.7972 35.9756 13.7874C35.9756 15.768 35.7351 16.7582 35.4947 17.2534C37.1781 19.2339 38.3805 21.7095 38.3805 24.6803C38.3805 30.1267 34.2922 33.3451 28.761 34.5829C30.2039 35.8207 31.1659 38.0488 31.1659 40.2769V46.7136C31.1659 47.4563 31.8874 48.199 32.8493 47.9514C41.7473 44.238 48 35.3256 48 24.9279C48 10.074 35.7352 -1.5616 21.3059 0.171353Z" fill="#F3F3F3"/>
</svg>
