<svg width="50" height="50" viewBox="0 0 50 50" fill="none" xmlns="http://www.w3.org/2000/svg">
<path d="M25 39.5834C33.0542 39.5834 39.5834 33.0542 39.5834 25C39.5834 16.9459 33.0542 10.4167 25 10.4167C16.9459 10.4167 10.4167 16.9459 10.4167 25C10.4167 33.0542 16.9459 39.5834 25 39.5834Z" fill="#F7F7F7"/>
<path d="M25 47.8333C23.8541 47.8333 22.9166 46.9791 22.9166 45.8333V45.6666C22.9166 44.5208 23.8541 43.5833 25 43.5833C26.1458 43.5833 27.0833 44.5208 27.0833 45.6666C27.0833 46.8125 26.1458 47.8333 25 47.8333ZM39.875 41.9583C39.3333 41.9583 38.8125 41.75 38.3958 41.3542L38.125 41.0833C37.3125 40.2708 37.3125 38.9583 38.125 38.1458C38.9375 37.3333 40.25 37.3333 41.0625 38.1458L41.3333 38.4167C42.1458 39.2292 42.1458 40.5417 41.3333 41.3542C40.9375 41.75 40.4166 41.9583 39.875 41.9583ZM10.125 41.9583C9.58331 41.9583 9.06248 41.75 8.64581 41.3542C7.83331 40.5417 7.83331 39.2292 8.64581 38.4167L8.91665 38.1458C9.72915 37.3333 11.0416 37.3333 11.8541 38.1458C12.6666 38.9583 12.6666 40.2708 11.8541 41.0833L11.5833 41.3542C11.1875 41.75 10.6458 41.9583 10.125 41.9583ZM45.8333 27.0833H45.6666C44.5208 27.0833 43.5833 26.1458 43.5833 25C43.5833 23.8541 44.5208 22.9166 45.6666 22.9166C46.8125 22.9166 47.8333 23.8541 47.8333 25C47.8333 26.1458 46.9791 27.0833 45.8333 27.0833ZM4.33331 27.0833H4.16665C3.02081 27.0833 2.08331 26.1458 2.08331 25C2.08331 23.8541 3.02081 22.9166 4.16665 22.9166C5.31248 22.9166 6.33331 23.8541 6.33331 25C6.33331 26.1458 5.47915 27.0833 4.33331 27.0833ZM39.6041 12.4791C39.0625 12.4791 38.5416 12.2708 38.125 11.875C37.3125 11.0625 37.3125 9.74998 38.125 8.93748L38.3958 8.66665C39.2083 7.85415 40.5208 7.85415 41.3333 8.66665C42.1458 9.47915 42.1458 10.7916 41.3333 11.6041L41.0625 11.875C40.6666 12.2708 40.1458 12.4791 39.6041 12.4791ZM10.3958 12.4791C9.85415 12.4791 9.33331 12.2708 8.91665 11.875L8.64581 11.5833C7.83331 10.7708 7.83331 9.45831 8.64581 8.64581C9.45831 7.83331 10.7708 7.83331 11.5833 8.64581L11.8541 8.91665C12.6666 9.72915 12.6666 11.0416 11.8541 11.8541C11.4583 12.2708 10.9166 12.4791 10.3958 12.4791ZM25 6.33331C23.8541 6.33331 22.9166 5.47915 22.9166 4.33331V4.16665C22.9166 3.02081 23.8541 2.08331 25 2.08331C26.1458 2.08331 27.0833 3.02081 27.0833 4.16665C27.0833 5.31248 26.1458 6.33331 25 6.33331Z" fill="#F7F7F7"/>
</svg>
